<svg width="128" height="111" viewBox="0 0 128 111" fill="none" xmlns="http://www.w3.org/2000/svg">
    <rect width="128" height="111" rx="55.5" fill="#FF0000"/>
    <ellipse cx="64" cy="60" rx="58" ry="49" fill="white"/>
    <path d="M64.7684 51.5508H53.1029C52.8899 50.0415 52.4549 48.701 51.7979 47.5291C51.1409 46.3395 50.2975 45.3274 49.2677 44.4929C48.2379 43.6584 47.0483 43.0192 45.6988 42.5753C44.3671 42.1314 42.9201 41.9094 41.3576 41.9094C38.5344 41.9094 36.0752 42.6108 33.9801 44.0135C31.8849 45.3984 30.2603 47.4226 29.1061 50.0859C27.952 52.7315 27.375 55.9453 27.375 59.7273C27.375 63.6158 27.952 66.8828 29.1061 69.5284C30.278 72.174 31.9115 74.1715 34.0067 75.521C36.1019 76.8704 38.5255 77.5451 41.2777 77.5451C42.8224 77.5451 44.2517 77.3409 45.5657 76.9325C46.8973 76.5241 48.0781 75.9293 49.1079 75.1481C50.1377 74.3491 50.99 73.3814 51.6647 72.245C52.3572 71.1087 52.8366 69.8125 53.1029 68.3565L64.7684 68.4098C64.4666 70.9134 63.712 73.3281 62.5046 75.6541C61.3149 77.9624 59.7081 80.0309 57.6839 81.8597C55.6775 83.6708 53.2805 85.109 50.4929 86.1744C47.723 87.2219 44.5891 87.7457 41.0912 87.7457C36.2262 87.7457 31.876 86.6449 28.0408 84.4432C24.2233 82.2415 21.2049 79.0543 18.9854 74.8817C16.7837 70.7092 15.6828 65.6577 15.6828 59.7273C15.6828 53.7791 16.8014 48.7188 19.0387 44.5462C21.2759 40.3736 24.3121 37.1953 28.1473 35.0114C31.9826 32.8097 36.2972 31.7088 41.0912 31.7088C44.2517 31.7088 47.1814 32.1527 49.8803 33.0405C52.5969 33.9283 55.0028 35.2244 57.098 36.929C59.1931 38.6158 60.8977 40.6843 62.2116 43.1346C63.5433 45.5849 64.3956 48.3903 64.7684 51.5508ZM84.1709 63.3494V87H72.8251V32.4545H83.8513V53.3086H84.3307C85.254 50.8938 86.7455 49.0028 88.8052 47.6357C90.8648 46.2507 93.4483 45.5582 96.5555 45.5582C99.3964 45.5582 101.873 46.1797 103.986 47.4226C106.117 48.6477 107.768 50.4144 108.94 52.7227C110.13 55.0131 110.716 57.7564 110.698 60.9524V87H99.3521V62.9766C99.3698 60.4553 98.7306 58.4933 97.4344 57.0906C96.156 55.6879 94.3627 54.9865 92.0545 54.9865C90.5097 54.9865 89.1425 55.315 87.9529 55.9719C86.781 56.6289 85.8577 57.5877 85.183 58.8484C84.5261 60.0913 84.1887 61.5916 84.1709 63.3494Z" fill="#FF0000"/>
</svg>
