<svg width="125" height="117" viewBox="0 0 125 117" fill="none" xmlns="http://www.w3.org/2000/svg">
    <rect x="6" y="3" width="119" height="111" rx="55.5" fill="#F73B19"/>
    <path d="M13.165 72.0509C13.6955 70.4412 15.8623 70.1797 16.7606 71.6169L30.8343 94.1348C31.4594 95.135 31.0876 96.4562 30.0327 96.9837L4.29792 109.851C2.70716 110.646 0.94732 109.125 1.50398 107.436L13.165 72.0509Z" fill="#F73B19"/>
    <path d="M34.8965 21.9062H46.5176L65.9512 75.4219L85.3359 21.9062H97.0059L70.5898 93H61.2637L34.8965 21.9062ZM29.0371 21.9062H40.4141L42.4648 71.0762V93H29.0371V21.9062ZM91.4395 21.9062H102.865V93H89.4375V71.0762L91.4395 21.9062Z" fill="white"/>
</svg>
